<svg data-v-423bf9ae="" xmlns="http://www.w3.org/2000/svg" viewBox="0 0 495 90" class="iconLeft"><!----><!----><defs data-v-423bf9ae=""><linearGradient data-v-423bf9ae="" gradientTransform="rotate(25)" id="a7ee2bf8-d075-49ef-9f8b-cd29c6efba19" x1="0%" y1="0%" x2="100%" y2="0%"><stop data-v-423bf9ae="" offset="0%" style="stop-color: rgb(244, 120, 33); stop-opacity: 1;"></stop><stop data-v-423bf9ae="" offset="100%" style="stop-color: rgb(255, 188, 141); stop-opacity: 1;"></stop></linearGradient></defs><g data-v-423bf9ae="" id="09c99426-e501-454a-b700-69cb4f9ac5d1" fill="url(#a7ee2bf8-d075-49ef-9f8b-cd29c6efba19)" transform="matrix(4.761905193328857,0,0,4.761905193328857,196.58563232421875,-2.714287757873535)"><path d="M5.67 8.65L5.67 10.16L7.71 10.16C7.52 11.52 6.64 12.33 5.39 12.33C3.88 12.33 2.76 11.10 2.76 8.69C2.76 6.50 3.88 5.17 5.45 5.17C6.73 5.17 7.46 5.87 7.70 7.06L7.73 7.20L9.66 7.20L9.65 7.06C9.45 5.15 8.09 3.72 5.47 3.72C2.77 3.72 0.71 5.64 0.71 8.81C0.71 11.87 2.41 13.78 5.10 13.78C6.16 13.78 6.90 13.52 7.45 12.99L7.88 12.01L8.01 13.58L9.56 13.58L9.56 8.65ZM14.56 5.94C12.08 5.94 10.70 7.59 10.70 9.86C10.70 12.11 12.08 13.78 14.56 13.78C17.04 13.78 18.42 12.11 18.42 9.86C18.42 7.59 17.04 5.94 14.56 5.94ZM14.56 12.42C13.40 12.42 12.70 11.45 12.70 9.86C12.70 8.25 13.40 7.29 14.56 7.29C15.72 7.29 16.42 8.25 16.42 9.86C16.42 11.45 15.72 12.42 14.56 12.42ZM27.02 12.05L21.98 12.05L21.98 9.51L26.53 9.51L26.53 7.98L21.98 7.98L21.98 5.43L26.88 5.43L26.88 3.92L20.05 3.92L20.05 13.58L27.02 13.58ZM32.34 9.81L34.92 6.13L32.69 6.13L31.22 8.61L29.74 6.13L27.48 6.13L30.02 9.80L27.38 13.58L29.60 13.58L31.16 11.00L32.69 13.58L34.94 13.58ZM40.31 5.94C39.55 5.94 38.79 6.12 38.37 6.45L37.81 7.27L37.81 6.13L35.88 6.13L35.88 16.32L37.81 16.32L37.81 12.59L38.30 13.36C38.68 13.62 39.44 13.78 40.05 13.78C41.97 13.78 43.62 12.40 43.62 9.72C43.62 7.52 42.39 5.94 40.31 5.94ZM39.68 12.42C38.78 12.42 37.81 11.82 37.81 10.12L37.81 9.77C37.81 7.95 38.68 7.29 39.75 7.29C40.89 7.29 41.62 8.32 41.62 9.84C41.62 11.56 40.80 12.42 39.68 12.42ZM48.24 5.94C45.77 5.94 44.38 7.59 44.38 9.86C44.38 12.11 45.77 13.78 48.24 13.78C50.72 13.78 52.11 12.11 52.11 9.86C52.11 7.59 50.72 5.94 48.24 5.94ZM48.24 12.42C47.08 12.42 46.38 11.45 46.38 9.86C46.38 8.25 47.08 7.29 48.24 7.29C49.41 7.29 50.11 8.25 50.11 9.86C50.11 11.45 49.41 12.42 48.24 12.42ZM57.16 5.95C56.74 5.95 56.25 6.12 55.89 6.45L55.30 7.49L55.30 6.13L53.37 6.13L53.37 13.58L55.30 13.58L55.30 10.16C55.30 8.16 56.10 7.45 57.71 7.56L57.71 6.01C57.54 5.96 57.39 5.95 57.16 5.95ZM61.00 7.46L62.54 7.46L62.54 6.19L61.00 6.19L61.00 4.35L59.07 4.35L59.07 6.19L57.97 6.19L57.97 7.46L59.07 7.46L59.07 11.13C59.07 11.55 59.07 11.87 59.09 12.21C59.18 13.26 59.70 13.73 61.14 13.73C61.57 13.73 61.98 13.71 62.41 13.64L62.41 12.38C61.33 12.46 61.07 12.29 61.01 11.56C61.00 11.37 61.00 11.16 61.00 10.91Z"></path></g><defs data-v-423bf9ae=""><linearGradient data-v-423bf9ae="" gradientTransform="rotate(25)" id="b0b54f61-6680-496d-bd0e-6646df71704c" x1="0%" y1="0%" x2="100%" y2="0%"><stop data-v-423bf9ae="" offset="0%" style="stop-color: rgb(244, 120, 33); stop-opacity: 1;"></stop><stop data-v-423bf9ae="" offset="100%" style="stop-color: rgb(255, 188, 141); stop-opacity: 1;"></stop></linearGradient></defs><g data-v-423bf9ae="" id="a1d5f6e5-be6c-47fa-a5a4-cd11e315ecfe" transform="matrix(2.1625120639801025,0,0,2.1625120639801025,-13.733928680419922,-62.819488525390625)" stroke="none" fill="url(#b0b54f61-6680-496d-bd0e-6646df71704c)"><path d="M55.229 31.675a22.784 22.784 0 00-3.069-.211c-4.496 0-8.521 1.376-11.8 3.368-1.909-1.839-7.904-7.071-12.772-5.424-2.62.886-4.214 3.396-4.738 7.459-.333 2.587-1.244 4.254-2.785 5.096-3.124 1.708-8.431-.119-10.209-.961A2.264 2.264 0 007.9 45.084c.245.117 4.451 2.097 8.945 2.097 1.825 0 3.699-.326 5.374-1.236 2.872-1.562 4.594-4.421 5.12-8.498.271-2.109.892-3.476 1.698-3.75 1.658-.555 5.209 1.715 7.645 3.899-3.202 2.918-5.113 6.284-5.18 8.704-.073 2.639 2.725 6.083 5.083 8.508 7.135 7.336 20.703 15.9 35.453 15.902h.005c.45 0 .898-.008 1.433-.027 11.708-.836 16.149-7.102 16.4-12.686.45-9.952-11.522-22.557-34.647-26.322zm-.674 4.478l.057.01c-1.287.731-2.544 1.62-3.754 2.595-1.618-.896-3.083-1.478-4.378-1.818a17.763 17.763 0 015.68-.947 17.6 17.6 0 012.395.16zM36.026 46.425c.043-1.57 2.279-4.87 6.045-7.343 1.32-.222 3.572-.152 6.747 1.434-2.371 2.184-4.478 4.585-6.134 6.657a42.235 42.235 0 01-1.312-1.402c-2.198-2.801.413-5.385-.343-4.752-2.618 2.195-3.552 4.197-3.673 4.869.306.931 1.396 2.443 3.103 4.212a72.86 72.86 0 00-.93 1.32c-2.155-2.246-3.405-4.113-3.503-4.995zm49.328 11.37c-.211 4.711-4.772 7.844-12.119 8.369-.399.014-.795.02-1.192.02h-.003c-13.055 0-24.372-7.158-30.685-12.975.277-.42.586-.869.926-1.348 6.382 5.803 18.125 13.055 30.909 12.604 6.586-.473 10.701-3.145 10.883-7.145.052-1.17-.24-2.17-.832-3.551-.086 1.932-.342 6.957-10.176 7.15-12.446.439-22.72-6.547-28.577-11.985 3.795-4.759 9.323-10.39 14.471-11.921 18.614 4.246 26.682 14.411 26.395 20.782z"></path></g><!----></svg>